<svg width="23" height="45" viewBox="0 0 23 45" fill="none" xmlns="http://www.w3.org/2000/svg">
<path d="M18.7609 44.9982C18.2808 44.9998 17.8064 44.8939 17.3726 44.6881C16.9388 44.4823 16.5566 44.182 16.2541 43.8091L0.731117 24.5259C0.258415 23.9508 0 23.2295 0 22.485C0 21.7406 0.258415 21.0193 0.731117 20.4442L16.8005 1.16102C17.346 0.504692 18.1299 0.0919528 18.9797 0.0135995C19.8295 -0.0647538 20.6757 0.197697 21.332 0.743215C21.9884 1.28873 22.4011 2.07263 22.4794 2.92246C22.5578 3.7723 22.2953 4.61845 21.7498 5.27477L7.38383 22.5011L21.2677 39.7275C21.6607 40.1992 21.9104 40.7737 21.9871 41.3828C22.0639 41.992 21.9645 42.6105 21.7008 43.1649C21.4371 43.7194 21.0201 44.1868 20.4991 44.5116C19.9781 44.8365 19.3749 45.0054 18.7609 44.9982Z" fill="black"/>
</svg>
