<svg width="124" height="124" viewBox="0 0 124 124" fill="none" xmlns="http://www.w3.org/2000/svg">
<path d="M62 0C45.5622 0.0183795 29.803 6.55641 18.1797 18.1797C6.55641 29.803 0.0183795 45.5622 0 62C0.0275414 78.435 6.56851 94.1889 18.1898 105.81C29.8111 117.431 45.565 123.972 62 124C78.4434 124 94.2134 117.468 105.841 105.841C117.468 94.2134 124 78.4434 124 62C124 45.5566 117.468 29.7866 105.841 18.1594C94.2134 6.53212 78.4434 0 62 0ZM99.7109 97.7765C96.2289 90.7532 90.8534 84.8427 84.1909 80.7119C77.5284 76.5811 69.8442 74.3944 62.005 74.3986C54.1659 74.4027 46.484 76.5975 39.8259 80.7352C33.1677 84.873 27.7985 90.7892 24.3238 97.8162C15.0532 88.2012 9.88747 75.3563 9.92 62C9.92 48.1875 15.407 34.9408 25.1739 25.1739C34.9408 15.407 48.1875 9.92 62 9.92C75.8125 9.92 89.0592 15.407 98.8261 25.1739C108.593 34.9408 114.08 48.1875 114.08 62C114.111 75.3376 108.959 88.1656 99.7109 97.7765ZM62 24.8C57.5855 24.8 53.2702 26.109 49.5997 28.5616C45.9292 31.0142 43.0684 34.5001 41.379 38.5785C39.6897 42.657 39.2477 47.1448 40.1089 51.4744C40.9701 55.8041 43.0959 59.7811 46.2174 62.9026C49.3389 66.0241 53.3159 68.1499 57.6456 69.0111C61.9752 69.8724 66.463 69.4303 70.5415 67.741C74.6199 66.0516 78.1059 63.1908 80.5584 59.5203C83.011 55.8498 84.32 51.5345 84.32 47.12C84.32 44.1889 83.7427 41.2865 82.621 38.5785C81.4993 35.8705 79.8552 33.41 77.7826 31.3374C75.71 29.2648 73.2495 27.6207 70.5415 26.499C67.8335 25.3773 64.9311 24.8 62 24.8Z" fill="#C9D5E4"/>
</svg>
