<svg width="1920" height="160" viewBox="0 0 1920 160" fill="none" xmlns="http://www.w3.org/2000/svg">
<g clip-path="url(#clip0_14_2)">
<path d="M699.549 138.584H710.829V143H694.077V109.64H699.549V138.584ZM713.581 129.656C713.581 127 714.125 124.648 715.213 122.6C716.333 120.552 717.837 118.968 719.725 117.848C721.645 116.696 723.757 116.12 726.061 116.12C728.141 116.12 729.949 116.536 731.485 117.368C733.053 118.168 734.301 119.176 735.229 120.392V116.552H740.749V143H735.229V139.064C734.301 140.312 733.037 141.352 731.437 142.184C729.837 143.016 728.013 143.432 725.965 143.432C723.693 143.432 721.613 142.856 719.725 141.704C717.837 140.52 716.333 138.888 715.213 136.808C714.125 134.696 713.581 132.312 713.581 129.656ZM735.229 129.752C735.229 127.928 734.845 126.344 734.077 125C733.341 123.656 732.365 122.632 731.149 121.928C729.933 121.224 728.621 120.872 727.213 120.872C725.805 120.872 724.493 121.224 723.277 121.928C722.061 122.6 721.069 123.608 720.301 124.952C719.565 126.264 719.197 127.832 719.197 129.656C719.197 131.48 719.565 133.08 720.301 134.456C721.069 135.832 722.061 136.888 723.277 137.624C724.525 138.328 725.837 138.68 727.213 138.68C728.621 138.68 729.933 138.328 731.149 137.624C732.365 136.92 733.341 135.896 734.077 134.552C734.845 133.176 735.229 131.576 735.229 129.752ZM779.952 116.12C782.032 116.12 783.888 116.552 785.52 117.416C787.184 118.28 788.48 119.56 789.408 121.256C790.368 122.952 790.848 125 790.848 127.4V143H785.424V128.216C785.424 125.848 784.832 124.04 783.648 122.792C782.464 121.512 780.848 120.872 778.8 120.872C776.752 120.872 775.12 121.512 773.904 122.792C772.72 124.04 772.128 125.848 772.128 128.216V143H766.704V128.216C766.704 125.848 766.112 124.04 764.928 122.792C763.744 121.512 762.128 120.872 760.08 120.872C758.032 120.872 756.4 121.512 755.184 122.792C754 124.04 753.408 125.848 753.408 128.216V143H747.936V116.552H753.408V119.576C754.304 118.488 755.44 117.64 756.816 117.032C758.192 116.424 759.664 116.12 761.232 116.12C763.344 116.12 765.232 116.568 766.896 117.464C768.56 118.36 769.84 119.656 770.736 121.352C771.536 119.752 772.784 118.488 774.48 117.56C776.176 116.6 778 116.12 779.952 116.12ZM803.283 120.44C804.211 119.224 805.475 118.2 807.075 117.368C808.675 116.536 810.483 116.12 812.499 116.12C814.803 116.12 816.899 116.696 818.787 117.848C820.707 118.968 822.211 120.552 823.299 122.6C824.387 124.648 824.931 127 824.931 129.656C824.931 132.312 824.387 134.696 823.299 136.808C822.211 138.888 820.707 140.52 818.787 141.704C816.899 142.856 814.803 143.432 812.499 143.432C810.483 143.432 808.691 143.032 807.123 142.232C805.555 141.4 804.275 140.376 803.283 139.16V155.576H797.811V116.552H803.283V120.44ZM819.363 129.656C819.363 127.832 818.979 126.264 818.211 124.952C817.475 123.608 816.483 122.6 815.235 121.928C814.019 121.224 812.707 120.872 811.299 120.872C809.923 120.872 808.611 121.224 807.363 121.928C806.147 122.632 805.155 123.656 804.387 125C803.651 126.344 803.283 127.928 803.283 129.752C803.283 131.576 803.651 133.176 804.387 134.552C805.155 135.896 806.147 136.92 807.363 137.624C808.611 138.328 809.923 138.68 811.299 138.68C812.707 138.68 814.019 138.328 815.235 137.624C816.483 136.888 817.475 135.832 818.211 134.456C818.979 133.08 819.363 131.48 819.363 129.656ZM848.283 138.584H859.563V143H842.811V109.64H848.283V138.584ZM866.923 113.048C865.931 113.048 865.099 112.712 864.427 112.04C863.755 111.368 863.419 110.536 863.419 109.544C863.419 108.552 863.755 107.72 864.427 107.048C865.099 106.376 865.931 106.04 866.923 106.04C867.883 106.04 868.699 106.376 869.371 107.048C870.043 107.72 870.379 108.552 870.379 109.544C870.379 110.536 870.043 111.368 869.371 112.04C868.699 112.712 867.883 113.048 866.923 113.048ZM869.611 116.552V143H864.139V116.552H869.611ZM887.451 116.12C889.499 116.12 891.307 116.536 892.875 117.368C894.475 118.168 895.723 119.176 896.619 120.392V116.552H902.139V143.432C902.139 145.864 901.627 148.024 900.603 149.912C899.579 151.832 898.091 153.336 896.139 154.424C894.219 155.512 891.915 156.056 889.227 156.056C885.643 156.056 882.667 155.208 880.299 153.512C877.931 151.848 876.587 149.576 876.267 146.696H881.691C882.107 148.072 882.987 149.176 884.331 150.008C885.707 150.872 887.339 151.304 889.227 151.304C891.435 151.304 893.211 150.632 894.555 149.288C895.931 147.944 896.619 145.992 896.619 143.432V139.016C895.691 140.264 894.427 141.32 892.827 142.184C891.259 143.016 889.467 143.432 887.451 143.432C885.147 143.432 883.035 142.856 881.115 141.704C879.227 140.52 877.723 138.888 876.603 136.808C875.515 134.696 874.971 132.312 874.971 129.656C874.971 127 875.515 124.648 876.603 122.6C877.723 120.552 879.227 118.968 881.115 117.848C883.035 116.696 885.147 116.12 887.451 116.12ZM896.619 129.752C896.619 127.928 896.235 126.344 895.467 125C894.731 123.656 893.755 122.632 892.539 121.928C891.323 121.224 890.011 120.872 888.603 120.872C887.195 120.872 885.883 121.224 884.667 121.928C883.451 122.6 882.459 123.608 881.691 124.952C880.955 126.264 880.587 127.832 880.587 129.656C880.587 131.48 880.955 133.08 881.691 134.456C882.459 135.832 883.451 136.888 884.667 137.624C885.915 138.328 887.227 138.68 888.603 138.68C890.011 138.68 891.323 138.328 892.539 137.624C893.755 136.92 894.731 135.896 895.467 134.552C896.235 133.176 896.619 131.576 896.619 129.752ZM923.007 116.12C925.023 116.12 926.815 116.552 928.383 117.416C929.983 118.28 931.231 119.56 932.127 121.256C933.055 122.952 933.519 125 933.519 127.4V143H928.095V128.216C928.095 125.848 927.503 124.04 926.319 122.792C925.135 121.512 923.519 120.872 921.471 120.872C919.423 120.872 917.791 121.512 916.575 122.792C915.391 124.04 914.799 125.848 914.799 128.216V143H909.327V107.48H914.799V119.624C915.727 118.504 916.895 117.64 918.303 117.032C919.743 116.424 921.311 116.12 923.007 116.12ZM946.882 121.016V135.656C946.882 136.648 947.106 137.368 947.554 137.816C948.034 138.232 948.834 138.44 949.954 138.44H953.314V143H948.994C946.53 143 944.642 142.424 943.33 141.272C942.018 140.12 941.362 138.248 941.362 135.656V121.016H938.242V116.552H941.362V109.976H946.882V116.552H953.314V121.016H946.882ZM961.142 113.048C960.15 113.048 959.318 112.712 958.646 112.04C957.974 111.368 957.638 110.536 957.638 109.544C957.638 108.552 957.974 107.72 958.646 107.048C959.318 106.376 960.15 106.04 961.142 106.04C962.102 106.04 962.918 106.376 963.59 107.048C964.262 107.72 964.598 108.552 964.598 109.544C964.598 110.536 964.262 111.368 963.59 112.04C962.918 112.712 962.102 113.048 961.142 113.048ZM963.83 116.552V143H958.358V116.552H963.83ZM984.358 116.12C986.438 116.12 988.294 116.552 989.926 117.416C991.59 118.28 992.886 119.56 993.814 121.256C994.742 122.952 995.206 125 995.206 127.4V143H989.782V128.216C989.782 125.848 989.19 124.04 988.006 122.792C986.822 121.512 985.206 120.872 983.158 120.872C981.11 120.872 979.478 121.512 978.262 122.792C977.078 124.04 976.486 125.848 976.486 128.216V143H971.014V116.552H976.486V119.576C977.382 118.488 978.518 117.64 979.894 117.032C981.302 116.424 982.79 116.12 984.358 116.12ZM1012.84 116.12C1014.89 116.12 1016.7 116.536 1018.27 117.368C1019.87 118.168 1021.11 119.176 1022.01 120.392V116.552H1027.53V143.432C1027.53 145.864 1027.02 148.024 1025.99 149.912C1024.97 151.832 1023.48 153.336 1021.53 154.424C1019.61 155.512 1017.31 156.056 1014.62 156.056C1011.03 156.056 1008.06 155.208 1005.69 153.512C1003.32 151.848 1001.98 149.576 1001.66 146.696H1007.08C1007.5 148.072 1008.38 149.176 1009.72 150.008C1011.1 150.872 1012.73 151.304 1014.62 151.304C1016.83 151.304 1018.6 150.632 1019.95 149.288C1021.32 147.944 1022.01 145.992 1022.01 143.432V139.016C1021.08 140.264 1019.82 141.32 1018.22 142.184C1016.65 143.016 1014.86 143.432 1012.84 143.432C1010.54 143.432 1008.43 142.856 1006.51 141.704C1004.62 140.52 1003.11 138.888 1001.99 136.808C1000.91 134.696 1000.36 132.312 1000.36 129.656C1000.36 127 1000.91 124.648 1001.99 122.6C1003.11 120.552 1004.62 118.968 1006.51 117.848C1008.43 116.696 1010.54 116.12 1012.84 116.12ZM1022.01 129.752C1022.01 127.928 1021.63 126.344 1020.86 125C1020.12 123.656 1019.15 122.632 1017.93 121.928C1016.71 121.224 1015.4 120.872 1013.99 120.872C1012.59 120.872 1011.27 121.224 1010.06 121.928C1008.84 122.6 1007.85 123.608 1007.08 124.952C1006.35 126.264 1005.98 127.832 1005.98 129.656C1005.98 131.48 1006.35 133.08 1007.08 134.456C1007.85 135.832 1008.84 136.888 1010.06 137.624C1011.31 138.328 1012.62 138.68 1013.99 138.68C1015.4 138.68 1016.71 138.328 1017.93 137.624C1019.15 136.92 1020.12 135.896 1020.86 134.552C1021.63 133.176 1022.01 131.576 1022.01 129.752ZM1066.82 109.64V114.104H1052.66V123.944H1063.7V128.408H1052.66V143H1047.19V109.64H1066.82ZM1096.13 129.128C1096.13 130.12 1096.07 131.016 1095.94 131.816H1075.73C1075.89 133.928 1076.67 135.624 1078.08 136.904C1079.49 138.184 1081.22 138.824 1083.27 138.824C1086.21 138.824 1088.29 137.592 1089.51 135.128H1095.41C1094.61 137.56 1093.15 139.56 1091.04 141.128C1088.96 142.664 1086.37 143.432 1083.27 143.432C1080.74 143.432 1078.47 142.872 1076.45 141.752C1074.47 140.6 1072.9 139 1071.75 136.952C1070.63 134.872 1070.07 132.472 1070.07 129.752C1070.07 127.032 1070.61 124.648 1071.7 122.6C1072.82 120.52 1074.37 118.92 1076.35 117.8C1078.37 116.68 1080.67 116.12 1083.27 116.12C1085.76 116.12 1087.99 116.664 1089.94 117.752C1091.89 118.84 1093.41 120.376 1094.5 122.36C1095.59 124.312 1096.13 126.568 1096.13 129.128ZM1090.42 127.4C1090.39 125.384 1089.67 123.768 1088.26 122.552C1086.85 121.336 1085.11 120.728 1083.03 120.728C1081.14 120.728 1079.52 121.336 1078.18 122.552C1076.83 123.736 1076.03 125.352 1075.78 127.4H1090.42ZM1099.69 129.656C1099.69 127 1100.23 124.648 1101.32 122.6C1102.44 120.552 1103.95 118.968 1105.83 117.848C1107.75 116.696 1109.87 116.12 1112.17 116.12C1114.25 116.12 1116.06 116.536 1117.59 117.368C1119.16 118.168 1120.41 119.176 1121.34 120.392V116.552H1126.86V143H1121.34V139.064C1120.41 140.312 1119.15 141.352 1117.55 142.184C1115.95 143.016 1114.12 143.432 1112.07 143.432C1109.8 143.432 1107.72 142.856 1105.83 141.704C1103.95 140.52 1102.44 138.888 1101.32 136.808C1100.23 134.696 1099.69 132.312 1099.69 129.656ZM1121.34 129.752C1121.34 127.928 1120.95 126.344 1120.19 125C1119.45 123.656 1118.47 122.632 1117.26 121.928C1116.04 121.224 1114.73 120.872 1113.32 120.872C1111.91 120.872 1110.6 121.224 1109.39 121.928C1108.17 122.6 1107.18 123.608 1106.41 124.952C1105.67 126.264 1105.31 127.832 1105.31 129.656C1105.31 131.48 1105.67 133.08 1106.41 134.456C1107.18 135.832 1108.17 136.888 1109.39 137.624C1110.63 138.328 1111.95 138.68 1113.32 138.68C1114.73 138.68 1116.04 138.328 1117.26 137.624C1118.47 136.92 1119.45 135.896 1120.19 134.552C1120.95 133.176 1121.34 131.576 1121.34 129.752ZM1140.43 121.016V135.656C1140.43 136.648 1140.65 137.368 1141.1 137.816C1141.58 138.232 1142.38 138.44 1143.5 138.44H1146.86V143H1142.54C1140.08 143 1138.19 142.424 1136.88 141.272C1135.57 140.12 1134.91 138.248 1134.91 135.656V121.016H1131.79V116.552H1134.91V109.976H1140.43V116.552H1146.86V121.016H1140.43ZM1175.86 116.552V143H1170.38V139.88C1169.52 140.968 1168.38 141.832 1166.98 142.472C1165.6 143.08 1164.13 143.384 1162.56 143.384C1160.48 143.384 1158.61 142.952 1156.94 142.088C1155.31 141.224 1154.02 139.944 1153.06 138.248C1152.13 136.552 1151.66 134.504 1151.66 132.104V116.552H1157.09V131.288C1157.09 133.656 1157.68 135.48 1158.86 136.76C1160.05 138.008 1161.66 138.632 1163.71 138.632C1165.76 138.632 1167.38 138.008 1168.56 136.76C1169.78 135.48 1170.38 133.656 1170.38 131.288V116.552H1175.86ZM1188.55 120.392C1189.35 119.048 1190.4 118.008 1191.72 117.272C1193.06 116.504 1194.64 116.12 1196.47 116.12V121.784H1195.08C1192.93 121.784 1191.3 122.328 1190.18 123.416C1189.09 124.504 1188.55 126.392 1188.55 129.08V143H1183.08V116.552H1188.55V120.392ZM1225.74 129.128C1225.74 130.12 1225.67 131.016 1225.55 131.816H1205.34C1205.5 133.928 1206.28 135.624 1207.69 136.904C1209.1 138.184 1210.83 138.824 1212.87 138.824C1215.82 138.824 1217.9 137.592 1219.11 135.128H1225.02C1224.22 137.56 1222.76 139.56 1220.65 141.128C1218.57 142.664 1215.98 143.432 1212.87 143.432C1210.35 143.432 1208.07 142.872 1206.06 141.752C1204.07 140.6 1202.51 139 1201.35 136.952C1200.23 134.872 1199.67 132.472 1199.67 129.752C1199.67 127.032 1200.22 124.648 1201.31 122.6C1202.43 120.52 1203.98 118.92 1205.96 117.8C1207.98 116.68 1210.28 116.12 1212.87 116.12C1215.37 116.12 1217.59 116.664 1219.55 117.752C1221.5 118.84 1223.02 120.376 1224.11 122.36C1225.19 124.312 1225.74 126.568 1225.74 129.128ZM1220.03 127.4C1219.99 125.384 1219.27 123.768 1217.87 122.552C1216.46 121.336 1214.71 120.728 1212.63 120.728C1210.75 120.728 1209.13 121.336 1207.79 122.552C1206.44 123.736 1205.64 125.352 1205.39 127.4H1220.03Z" fill="white"/>
<path d="M864.798 52.76L858.206 75H854.078L849.406 58.168L844.446 75L840.35 75.032L834.046 52.76H837.918L842.526 70.872L847.518 52.76H851.614L856.254 70.776L860.894 52.76H864.798ZM883.966 65.752C883.966 66.4133 883.924 67.0107 883.838 67.544H870.366C870.473 68.952 870.996 70.0827 871.934 70.936C872.873 71.7893 874.025 72.216 875.39 72.216C877.353 72.216 878.74 71.3947 879.55 69.752H883.486C882.953 71.3733 881.982 72.7067 880.574 73.752C879.188 74.776 877.46 75.288 875.39 75.288C873.705 75.288 872.19 74.9147 870.846 74.168C869.524 73.4 868.478 72.3333 867.71 70.968C866.964 69.5813 866.59 67.9813 866.59 66.168C866.59 64.3547 866.953 62.7653 867.678 61.4C868.425 60.0133 869.46 58.9467 870.782 58.2C872.126 57.4533 873.662 57.08 875.39 57.08C877.054 57.08 878.537 57.4427 879.838 58.168C881.14 58.8933 882.153 59.9173 882.878 61.24C883.604 62.5413 883.966 64.0453 883.966 65.752ZM880.158 64.6C880.137 63.256 879.657 62.1787 878.718 61.368C877.78 60.5573 876.617 60.152 875.23 60.152C873.972 60.152 872.894 60.5573 871.998 61.368C871.102 62.1573 870.569 63.2347 870.398 64.6H880.158ZM891.204 51.32V75H887.556V51.32H891.204ZM894.778 66.168C894.778 64.3547 895.14 62.7653 895.866 61.4C896.612 60.0133 897.636 58.9467 898.938 58.2C900.239 57.4533 901.732 57.08 903.418 57.08C905.551 57.08 907.311 57.592 908.698 58.616C910.106 59.6187 911.055 61.0587 911.546 62.936H907.61C907.29 62.0613 906.778 61.3787 906.074 60.888C905.37 60.3973 904.484 60.152 903.418 60.152C901.924 60.152 900.73 60.6853 899.834 61.752C898.959 62.7973 898.522 64.2693 898.522 66.168C898.522 68.0667 898.959 69.5493 899.834 70.616C900.73 71.6827 901.924 72.216 903.418 72.216C905.53 72.216 906.927 71.288 907.61 69.432H911.546C911.034 71.224 910.074 72.6533 908.666 73.72C907.258 74.7653 905.508 75.288 903.418 75.288C901.732 75.288 900.239 74.9147 898.938 74.168C897.636 73.4 896.612 72.3333 895.866 70.968C895.14 69.5813 894.778 67.9813 894.778 66.168ZM922.829 75.288C921.165 75.288 919.661 74.9147 918.317 74.168C916.973 73.4 915.917 72.3333 915.149 70.968C914.381 69.5813 913.997 67.9813 913.997 66.168C913.997 64.376 914.392 62.7867 915.181 61.4C915.971 60.0133 917.048 58.9467 918.413 58.2C919.779 57.4533 921.304 57.08 922.989 57.08C924.675 57.08 926.2 57.4533 927.565 58.2C928.931 58.9467 930.008 60.0133 930.797 61.4C931.587 62.7867 931.981 64.376 931.981 66.168C931.981 67.96 931.576 69.5493 930.765 70.936C929.955 72.3227 928.845 73.4 927.437 74.168C926.051 74.9147 924.515 75.288 922.829 75.288ZM922.829 72.12C923.768 72.12 924.643 71.896 925.453 71.448C926.285 71 926.957 70.328 927.469 69.432C927.981 68.536 928.237 67.448 928.237 66.168C928.237 64.888 927.992 63.8107 927.501 62.936C927.011 62.04 926.36 61.368 925.549 60.92C924.739 60.472 923.864 60.248 922.925 60.248C921.987 60.248 921.112 60.472 920.301 60.92C919.512 61.368 918.883 62.04 918.413 62.936C917.944 63.8107 917.709 64.888 917.709 66.168C917.709 68.0667 918.189 69.5387 919.149 70.584C920.131 71.608 921.357 72.12 922.829 72.12ZM956.932 57.08C958.318 57.08 959.556 57.368 960.644 57.944C961.753 58.52 962.617 59.3733 963.236 60.504C963.876 61.6347 964.196 63 964.196 64.6V75H960.58V65.144C960.58 63.5653 960.185 62.36 959.396 61.528C958.606 60.6747 957.529 60.248 956.164 60.248C954.798 60.248 953.71 60.6747 952.9 61.528C952.11 62.36 951.716 63.5653 951.716 65.144V75H948.1V65.144C948.1 63.5653 947.705 62.36 946.916 61.528C946.126 60.6747 945.049 60.248 943.684 60.248C942.318 60.248 941.23 60.6747 940.42 61.528C939.63 62.36 939.236 63.5653 939.236 65.144V75H935.588V57.368H939.236V59.384C939.833 58.6587 940.59 58.0933 941.508 57.688C942.425 57.2827 943.406 57.08 944.452 57.08C945.86 57.08 947.118 57.3787 948.228 57.976C949.337 58.5733 950.19 59.4373 950.788 60.568C951.321 59.5013 952.153 58.6587 953.284 58.04C954.414 57.4 955.63 57.08 956.932 57.08ZM984.998 65.752C984.998 66.4133 984.955 67.0107 984.87 67.544H971.398C971.504 68.952 972.027 70.0827 972.966 70.936C973.904 71.7893 975.056 72.216 976.422 72.216C978.384 72.216 979.771 71.3947 980.582 69.752H984.517C983.984 71.3733 983.014 72.7067 981.606 73.752C980.219 74.776 978.491 75.288 976.422 75.288C974.736 75.288 973.222 74.9147 971.878 74.168C970.555 73.4 969.51 72.3333 968.742 70.968C967.995 69.5813 967.622 67.9813 967.622 66.168C967.622 64.3547 967.984 62.7653 968.71 61.4C969.456 60.0133 970.491 58.9467 971.814 58.2C973.158 57.4533 974.694 57.08 976.422 57.08C978.086 57.08 979.568 57.4427 980.87 58.168C982.171 58.8933 983.184 59.9173 983.91 61.24C984.635 62.5413 984.998 64.0453 984.998 65.752ZM981.19 64.6C981.168 63.256 980.688 62.1787 979.75 61.368C978.811 60.5573 977.648 60.152 976.262 60.152C975.003 60.152 973.926 60.5573 973.03 61.368C972.134 62.1573 971.6 63.2347 971.43 64.6H981.19ZM1001.16 60.344V70.104C1001.16 70.7653 1001.31 71.2453 1001.6 71.544C1001.92 71.8213 1002.46 71.96 1003.2 71.96H1005.44V75H1002.56C1000.92 75 999.663 74.616 998.788 73.848C997.913 73.08 997.476 71.832 997.476 70.104V60.344H995.396V57.368H997.476V52.984H1001.16V57.368H1005.44V60.344H1001.16ZM1016.45 75.288C1014.79 75.288 1013.29 74.9147 1011.94 74.168C1010.6 73.4 1009.54 72.3333 1008.77 70.968C1008.01 69.5813 1007.62 67.9813 1007.62 66.168C1007.62 64.376 1008.02 62.7867 1008.81 61.4C1009.6 60.0133 1010.67 58.9467 1012.04 58.2C1013.4 57.4533 1014.93 57.08 1016.61 57.08C1018.3 57.08 1019.82 57.4533 1021.19 58.2C1022.56 58.9467 1023.63 60.0133 1024.42 61.4C1025.21 62.7867 1025.61 64.376 1025.61 66.168C1025.61 67.96 1025.2 69.5493 1024.39 70.936C1023.58 72.3227 1022.47 73.4 1021.06 74.168C1019.68 74.9147 1018.14 75.288 1016.45 75.288ZM1016.45 72.12C1017.39 72.12 1018.27 71.896 1019.08 71.448C1019.91 71 1020.58 70.328 1021.09 69.432C1021.61 68.536 1021.86 67.448 1021.86 66.168C1021.86 64.888 1021.62 63.8107 1021.13 62.936C1020.64 62.04 1019.98 61.368 1019.17 60.92C1018.36 60.472 1017.49 60.248 1016.55 60.248C1015.61 60.248 1014.74 60.472 1013.93 60.92C1013.14 61.368 1012.51 62.04 1012.04 62.936C1011.57 63.8107 1011.33 64.888 1011.33 66.168C1011.33 68.0667 1011.81 69.5387 1012.77 70.584C1013.76 71.608 1014.98 72.12 1016.45 72.12ZM1041.78 60.344V70.104C1041.78 70.7653 1041.93 71.2453 1042.23 71.544C1042.55 71.8213 1043.08 71.96 1043.83 71.96H1046.07V75H1043.19C1041.55 75 1040.29 74.616 1039.41 73.848C1038.54 73.08 1038.1 71.832 1038.1 70.104V60.344H1036.02V57.368H1038.1V52.984H1041.78V57.368H1046.07V60.344H1041.78ZM1058.55 57.08C1059.9 57.08 1061.09 57.368 1062.14 57.944C1063.2 58.52 1064.03 59.3733 1064.63 60.504C1065.25 61.6347 1065.56 63 1065.56 64.6V75H1061.94V65.144C1061.94 63.5653 1061.55 62.36 1060.76 61.528C1059.97 60.6747 1058.89 60.248 1057.53 60.248C1056.16 60.248 1055.07 60.6747 1054.26 61.528C1053.47 62.36 1053.08 63.5653 1053.08 65.144V75H1049.43V51.32H1053.08V59.416C1053.7 58.6693 1054.48 58.0933 1055.42 57.688C1056.38 57.2827 1057.42 57.08 1058.55 57.08ZM1086.37 65.752C1086.37 66.4133 1086.33 67.0107 1086.24 67.544H1072.77C1072.88 68.952 1073.4 70.0827 1074.34 70.936C1075.28 71.7893 1076.43 72.216 1077.8 72.216C1079.76 72.216 1081.15 71.3947 1081.96 69.752H1085.89C1085.36 71.3733 1084.39 72.7067 1082.98 73.752C1081.59 74.776 1079.87 75.288 1077.8 75.288C1076.11 75.288 1074.6 74.9147 1073.25 74.168C1071.93 73.4 1070.88 72.3333 1070.12 70.968C1069.37 69.5813 1069 67.9813 1069 66.168C1069 64.3547 1069.36 62.7653 1070.08 61.4C1070.83 60.0133 1071.87 58.9467 1073.19 58.2C1074.53 57.4533 1076.07 57.08 1077.8 57.08C1079.46 57.08 1080.94 57.4427 1082.24 58.168C1083.55 58.8933 1084.56 59.9173 1085.28 61.24C1086.01 62.5413 1086.37 64.0453 1086.37 65.752ZM1082.56 64.6C1082.54 63.256 1082.06 62.1787 1081.12 61.368C1080.19 60.5573 1079.02 60.152 1077.64 60.152C1076.38 60.152 1075.3 60.5573 1074.4 61.368C1073.51 62.1573 1072.98 63.2347 1072.8 64.6H1082.56Z" fill="white"/>
</g>
<defs>
<clipPath id="clip0_14_2">
<rect width="1920" height="160" fill="white"/>
</clipPath>
</defs>
</svg>
