<svg width="250" height="46" viewBox="0 0 250 46" fill="none" xmlns="http://www.w3.org/2000/svg">
<g clip-path="url(#clip0_5_36)">
<path d="M52.6259 6.98363H59.3373V31.0709H71.0822V36.6745H52.6259V6.98363Z" fill="#A7B1BE"/>
<path d="M74.7735 30.4854C74.7735 25.7182 78.5487 23.1254 87.6091 22.2054C87.4413 20.1982 86.5185 18.9436 84.0017 18.9436C82.0722 18.9436 80.2265 19.78 77.9614 20.9509L75.5285 16.5182C78.3809 14.7618 81.6527 13.5073 85.2601 13.5073C91.0487 13.5073 94.3205 16.8527 94.3205 23.7945V36.7582H88.8675L88.3641 34.4164H88.1963C86.2668 36.0891 84.1695 37.26 81.5688 37.26C77.3742 37.26 74.7735 34.2491 74.7735 30.4854ZM87.5252 30.1509V26.22C82.7433 26.8891 81.1493 28.2273 81.1493 29.9C81.1493 31.3218 82.156 32.0745 83.75 32.0745C85.344 32.0745 86.3507 31.3218 87.5252 30.1509Z" fill="#A7B1BE"/>
<path d="M99.9413 14.0927H105.394L105.898 17.02H106.065C107.911 15.18 109.924 13.5909 112.945 13.5909C116.133 13.5909 118.062 14.9291 119.237 17.4382C121.25 15.3473 123.347 13.5909 126.367 13.5909C131.317 13.5909 133.498 17.1036 133.498 22.7073V36.7582H126.787V23.5436C126.787 20.2818 125.864 19.2782 124.018 19.2782C122.844 19.2782 121.586 19.9473 120.159 21.4527V36.7582H113.448V23.5436C113.448 20.2818 112.525 19.2782 110.68 19.2782C109.589 19.2782 108.247 19.9473 106.82 21.4527V36.7582H100.109V14.0927H99.9413Z" fill="#A7B1BE"/>
<path d="M139.203 14.0927H144.656L145.159 16.3509H145.327C147.089 14.7618 149.438 13.5909 151.787 13.5909C157.324 13.5909 160.68 18.1073 160.68 25.1327C160.68 32.9109 156.065 37.3436 151.116 37.3436C149.186 37.3436 147.341 36.5073 145.663 35.0018L145.914 38.5982V45.2055H139.203V14.0927ZM153.8 25.1327C153.8 21.0345 152.542 19.0273 149.857 19.0273C148.431 19.0273 147.257 19.6127 145.914 21.0345V30.3182C147.173 31.4055 148.431 31.74 149.522 31.74C151.955 31.8236 153.8 29.8164 153.8 25.1327Z" fill="#A7B1BE"/>
<path d="M166.049 6.98363H172.76V31.0709H184.505V36.6745H165.965V6.98363H166.049Z" fill="#A7B1BE"/>
<path d="M188.616 7.23454C188.616 5.14364 190.294 3.72182 192.475 3.72182C194.74 3.72182 196.334 5.14364 196.334 7.23454C196.334 9.24182 194.656 10.7473 192.475 10.7473C190.294 10.7473 188.616 9.32545 188.616 7.23454ZM189.203 14.0927H195.914V36.7582H189.203V14.0927Z" fill="#A7B1BE"/>
<path d="M201.787 14.0927H207.24L207.743 16.9364H207.911C209.841 15.0964 212.106 13.5073 215.21 13.5073C220.159 13.5073 222.257 17.02 222.257 22.6236V36.6745H215.545V23.5436C215.545 20.2818 214.706 19.2782 212.693 19.2782C211.015 19.2782 210.008 20.0309 208.498 21.4527V36.7582H201.787V14.0927Z" fill="#A7B1BE"/>
<path d="M228.045 4.72545H234.589V23.0418H234.757L241.971 14.0927H249.27L241.3 23.46L249.857 36.7582H242.559L237.441 27.8927L234.589 31.1545V36.7582H228.045V4.72545Z" fill="#A7B1BE"/>
<path d="M12.2735 24.8818C11.0151 23.0418 10.1761 20.9509 9.92447 18.6927C9.67279 16.4345 9.92447 14.0927 10.7634 11.9182L11.4345 10.3291C11.6862 9.82727 12.0218 9.32545 12.2735 8.82363L12.6929 8.0709L13.1963 7.40181L14.2869 6.06363C15.0419 5.22727 15.8808 4.3909 16.7198 3.55454L19.4043 1.37999L20.1594 0.79454L21.1661 1.37999C22.1728 2.13272 23.0117 2.88545 23.8506 3.63818C24.6896 4.47454 25.4446 5.3109 26.1996 6.14727C27.6258 7.90363 28.8842 9.9109 29.7231 12.0854C30.4782 14.26 30.8137 16.6018 30.4782 18.86C30.1426 21.1182 29.2198 23.2091 27.9614 24.9655C28.9681 23.0418 29.5553 20.8673 29.6392 18.7764C29.7231 16.6854 29.1359 14.5945 28.2131 12.7545C27.2902 10.9145 25.948 9.24181 24.4379 7.81999C23.6829 7.06727 22.8439 6.39818 22.005 5.81272C21.1661 5.22727 20.2433 4.64181 19.4043 4.13999H21.1661L18.4815 5.81272C17.6426 6.48181 16.8037 7.06727 16.0486 7.73636L14.958 8.82363L14.3708 9.40909L14.0352 9.99454C13.6996 10.4127 13.3641 10.8309 13.1124 11.2491L12.3574 12.5873C11.4345 14.4273 10.8473 16.5182 10.8473 18.6091C10.6795 20.7836 11.1829 22.9582 12.2735 24.8818Z" fill="#A7B1BE"/>
<path d="M16.208 24.8818C15.7047 23.8782 15.453 22.7909 15.2852 21.62C15.2013 20.4491 15.2013 19.2782 15.453 18.1909C15.7047 17.02 16.1241 15.8491 16.7114 14.8454C17.2986 13.7582 18.1376 12.8382 19.0604 12.0018L20.151 10.9982L21.2416 12.0018C21.745 12.5036 22.1644 12.9218 22.5839 13.34C22.9194 13.8418 23.3389 14.26 23.5906 14.7618C24.1778 15.7654 24.6812 16.8527 25.0168 18.0236C25.3523 19.1945 25.4362 20.3654 25.3523 21.5364C25.2684 22.7073 25.0168 23.7945 24.5134 24.7982C24.2617 23.7109 24.0939 22.6236 23.7584 21.7036C23.4228 20.7 23.0872 19.8636 22.5839 18.9436C22.0805 18.1073 21.5772 17.2709 20.9899 16.5182C20.6543 16.1 20.4027 15.7654 20.0671 15.4309C19.7315 15.0964 19.396 14.6782 19.1443 14.5109H21.3255C20.6543 15.0964 19.9832 15.7654 19.4799 16.5182C18.8926 17.2709 18.3892 18.1073 17.9698 18.9436C17.5503 19.78 17.2148 20.7836 16.9631 21.7036C16.6275 22.7909 16.4597 23.7945 16.208 24.8818Z" fill="#A7B1BE"/>
<path d="M19.8238 24.7982C19.8238 26.3873 19.4883 27.8927 18.9849 29.3982C18.4815 30.9036 17.7265 32.3254 16.6359 33.58C15.6292 34.8345 14.2869 35.9218 12.8607 36.6745C12.1896 37.0927 11.3507 37.3436 10.5956 37.6782C9.84061 37.9291 9.00168 38.0964 8.24665 38.3473H8.16275H7.91108C6.56879 38.3473 5.14262 38.18 3.80034 37.5945C2.45806 37.0091 1.19967 35.8382 0.612418 34.3327C-0.0587225 32.8273 0.0251701 31.1545 0.696311 29.8164C1.28356 28.4782 2.37416 27.4745 3.71645 27.14L3.88423 27.3909C2.45806 29.3982 2.62584 31.5727 3.54866 32.9109C4.05202 33.58 4.63926 34.0818 5.47819 34.5C6.31712 34.9182 7.23994 35.2527 8.24665 35.42H7.91108C8.58222 35.3364 9.33725 35.2527 10.0084 35.0854C10.6795 34.9182 11.3507 34.7509 11.9379 34.4164C13.1963 33.9145 14.3708 33.1618 15.4614 32.2418C16.4681 31.3218 17.3909 30.1509 18.0621 28.8964C18.7332 27.6418 19.3205 26.22 19.5722 24.7145L19.8238 24.7982Z" fill="#A7B1BE"/>
<path d="M20.5789 24.7982C20.9145 26.22 21.4178 27.6418 22.089 28.98C22.7601 30.2345 23.6829 31.4054 24.6896 32.3254C25.6963 33.2454 26.8708 33.9982 28.2131 34.5C28.8004 34.8345 29.5554 34.9182 30.1426 35.1691C30.8138 35.3364 31.4849 35.42 32.24 35.5036H31.9044C32.9111 35.3364 33.9178 35.0018 34.6728 34.5836C35.4279 34.1654 36.099 33.6636 36.6024 32.9945C37.5252 31.6564 37.693 29.4818 36.2668 27.4745L36.4346 27.2236C37.693 27.5582 38.8675 28.5618 39.4547 29.9C40.042 31.2382 40.1259 32.9109 39.5386 34.4164C38.9514 35.9218 37.693 37.0927 36.3507 37.6782C35.0084 38.2636 33.5822 38.4309 32.24 38.4309H31.9883H31.9044C31.1494 38.18 30.3104 38.0127 29.5554 37.7618C28.8004 37.4273 28.0453 37.1764 27.2903 36.7582C25.7802 36.0054 24.5218 34.9182 23.5151 33.6636C22.5084 32.4091 21.6695 30.9873 21.1661 29.4818C20.6628 27.9764 20.3272 26.4709 20.3272 24.8818L20.5789 24.7982Z" fill="#A7B1BE"/>
</g>
<defs>
<clipPath id="clip0_5_36">
<rect width="250" height="46" fill="white"/>
</clipPath>
</defs>
</svg>
